<svg width="940" height="932.5" viewBox="0 0 940 932.5" xmlns="http://www.w3.org/2000/svg">
  <rect width="940" height="932.5" fill="#0a0e14"/>
  
      <rect x="40" y="30" width="860" height="90" rx="6" fill="#12161d" stroke="#1f2733" stroke-width="1"/>
      <defs>
        <clipPath id="avatarClip">
          <circle cx="85" cy="75" r="28"/>
        </clipPath>
      </defs>
      <circle cx="85" cy="75" r="29" fill="none" stroke="#1f2733" stroke-width="1.5"/>
      <image href="https://github.com/true-brace05.png?size=80" x="57" y="47" width="56" height="56" clip-path="url(#avatarClip)"/>
      <text x="132" y="68" font-family="'Segoe UI', Helvetica, Arial, sans-serif" font-size="23" font-weight="700" fill="#e8ecf1" letter-spacing="0.5">ASTHA BANSAL</text>
      <text x="132" y="90" font-family="'Segoe UI', Helvetica, Arial, sans-serif" font-size="13" fill="#6b7688">Computer Science · AI &amp; Data Science</text>
      <text x="876" y="68" text-anchor="end" font-family="'SF Mono', 'Consolas', monospace" font-size="12" fill="#40495a">@true-brace05</text>
    <rect x="40" y="136" width="160.8" height="74" rx="6" fill="#12161d" stroke="#1f2733" stroke-width="1"/><text x="56" y="166" font-family="'SF Mono', 'Consolas', monospace" font-size="22" font-weight="700" fill="#e8ecf1">5</text><text x="56" y="188" font-family="'Segoe UI', Helvetica, Arial, sans-serif" font-size="10.5" letter-spacing="0.8" fill="#6b7688">REPOSITORIES</text><rect x="214.8" y="136" width="160.8" height="74" rx="6" fill="#12161d" stroke="#1f2733" stroke-width="1"/><text x="230.8" y="166" font-family="'SF Mono', 'Consolas', monospace" font-size="22" font-weight="700" fill="#e8ecf1">0</text><text x="230.8" y="188" font-family="'Segoe UI', Helvetica, Arial, sans-serif" font-size="10.5" letter-spacing="0.8" fill="#6b7688">FOLLOWERS</text><rect x="389.6" y="136" width="160.8" height="74" rx="6" fill="#12161d" stroke="#1f2733" stroke-width="1"/><text x="405.6" y="166" font-family="'SF Mono', 'Consolas', monospace" font-size="22" font-weight="700" fill="#e8ecf1">0</text><text x="405.6" y="188" font-family="'Segoe UI', Helvetica, Arial, sans-serif" font-size="10.5" letter-spacing="0.8" fill="#6b7688">STARS</text><rect x="564.4000000000001" y="136" width="160.8" height="74" rx="6" fill="#12161d" stroke="#1f2733" stroke-width="1"/><text x="580.4000000000001" y="166" font-family="'SF Mono', 'Consolas', monospace" font-size="22" font-weight="700" fill="#e8ecf1">70</text><text x="580.4000000000001" y="188" font-family="'Segoe UI', Helvetica, Arial, sans-serif" font-size="10.5" letter-spacing="0.8" fill="#6b7688">CONTRIBUTIONS (12MO)</text><rect x="739.2" y="136" width="160.8" height="74" rx="6" fill="#12161d" stroke="#1f2733" stroke-width="1"/><text x="755.2" y="166" font-family="'SF Mono', 'Consolas', monospace" font-size="22" font-weight="700" fill="#e8ecf1">2</text><text x="755.2" y="188" font-family="'Segoe UI', Helvetica, Arial, sans-serif" font-size="10.5" letter-spacing="0.8" fill="#6b7688">YEARS ACTIVE</text>
      <rect x="40" y="226" width="860" height="138.5" rx="6" fill="#12161d" stroke="#1f2733" stroke-width="1"/>
      <text x="60" y="254" font-family="'Segoe UI', Helvetica, Arial, sans-serif" font-size="11" letter-spacing="1.5" fill="#6b7688" font-weight="600">CONTRIBUTION ACTIVITY — LAST 12 MONTHS</text>
      <text x="880" y="254" text-anchor="end" font-family="'SF Mono', 'Consolas', monospace" font-size="11" fill="#6b7688">70 total</text>
      <rect x="60" y="270" width="9" height="9" rx="2" fill="#161b22"/><rect x="60" y="281.5" width="9" height="9" rx="2" fill="#161b22"/><rect x="60" y="293" width="9" height="9" rx="2" fill="#161b22"/><rect x="60" y="304.5" width="9" height="9" rx="2" fill="#161b22"/><rect x="60" y="316" width="9" height="9" rx="2" fill="#161b22"/><rect x="60" y="327.5" width="9" height="9" rx="2" fill="#161b22"/><rect x="60" y="339" width="9" height="9" rx="2" fill="#161b22"/><rect x="71.5" y="270" width="9" height="9" rx="2" fill="#161b22"/><rect x="71.5" y="281.5" width="9" height="9" rx="2" fill="#161b22"/><rect x="71.5" y="293" width="9" height="9" rx="2" fill="#161b22"/><rect x="71.5" y="304.5" width="9" height="9" rx="2" fill="#161b22"/><rect x="71.5" y="316" width="9" height="9" rx="2" fill="#161b22"/><rect x="71.5" y="327.5" width="9" height="9" rx="2" fill="#161b22"/><rect x="71.5" y="339" width="9" height="9" rx="2" fill="#161b22"/><rect x="83" y="270" width="9" height="9" rx="2" fill="#161b22"/><rect x="83" y="281.5" width="9" height="9" rx="2" fill="#161b22"/><rect x="83" y="293" width="9" height="9" rx="2" fill="#161b22"/><rect x="83" y="304.5" width="9" height="9" rx="2" fill="#161b22"/><rect x="83" y="316" width="9" height="9" rx="2" fill="#161b22"/><rect x="83" y="327.5" width="9" height="9" rx="2" fill="#161b22"/><rect x="83" y="339" width="9" height="9" rx="2" fill="#161b22"/><rect x="94.5" y="270" width="9" height="9" rx="2" fill="#161b22"/><rect x="94.5" y="281.5" width="9" height="9" rx="2" fill="#161b22"/><rect x="94.5" y="293" width="9" height="9" rx="2" fill="#161b22"/><rect x="94.5" y="304.5" width="9" height="9" rx="2" fill="#161b22"/><rect x="94.5" y="316" width="9" height="9" rx="2" fill="#161b22"/><rect x="94.5" y="327.5" width="9" height="9" rx="2" fill="#161b22"/><rect x="94.5" y="339" width="9" height="9" rx="2" fill="#161b22"/><rect x="106" y="270" width="9" height="9" rx="2" fill="#161b22"/><rect x="106" y="281.5" width="9" height="9" rx="2" fill="#161b22"/><rect x="106" y="293" width="9" height="9" rx="2" fill="#161b22"/><rect x="106" y="304.5" width="9" height="9" rx="2" fill="#161b22"/><rect x="106" y="316" width="9" height="9" rx="2" fill="#161b22"/><rect x="106" y="327.5" width="9" height="9" rx="2" fill="#161b22"/><rect x="106" y="339" width="9" height="9" rx="2" fill="#161b22"/><rect x="117.5" y="270" width="9" height="9" rx="2" fill="#161b22"/><rect x="117.5" y="281.5" width="9" height="9" rx="2" fill="#161b22"/><rect x="117.5" y="293" width="9" height="9" rx="2" fill="#161b22"/><rect x="117.5" y="304.5" width="9" height="9" rx="2" fill="#161b22"/><rect x="117.5" y="316" width="9" height="9" rx="2" fill="#161b22"/><rect x="117.5" y="327.5" width="9" height="9" rx="2" fill="#161b22"/><rect x="117.5" y="339" width="9" height="9" rx="2" fill="#161b22"/><rect x="129" y="270" width="9" height="9" rx="2" fill="#161b22"/><rect x="129" y="281.5" width="9" height="9" rx="2" fill="#161b22"/><rect x="129" y="293" width="9" height="9" rx="2" fill="#161b22"/><rect x="129" y="304.5" width="9" height="9" rx="2" fill="#161b22"/><rect x="129" y="316" width="9" height="9" rx="2" fill="#161b22"/><rect x="129" y="327.5" width="9" height="9" rx="2" fill="#161b22"/><rect x="129" y="339" width="9" height="9" rx="2" fill="#161b22"/><rect x="140.5" y="270" width="9" height="9" rx="2" fill="#161b22"/><rect x="140.5" y="281.5" width="9" height="9" rx="2" fill="#161b22"/><rect x="140.5" y="293" width="9" height="9" rx="2" fill="#161b22"/><rect x="140.5" y="304.5" width="9" height="9" rx="2" fill="#161b22"/><rect x="140.5" y="316" width="9" height="9" rx="2" fill="#161b22"/><rect x="140.5" y="327.5" width="9" height="9" rx="2" fill="#161b22"/><rect x="140.5" y="339" width="9" height="9" rx="2" fill="#161b22"/><rect x="152" y="270" width="9" height="9" rx="2" fill="#161b22"/><rect x="152" y="281.5" width="9" height="9" rx="2" fill="#161b22"/><rect x="152" y="293" width="9" height="9" rx="2" fill="#161b22"/><rect x="152" y="304.5" width="9" height="9" rx="2" fill="#161b22"/><rect x="152" y="316" width="9" height="9" rx="2" fill="#161b22"/><rect x="152" y="327.5" width="9" height="9" rx="2" fill="#161b22"/><rect x="152" y="339" width="9" height="9" rx="2" fill="#161b22"/><rect x="163.5" y="270" width="9" height="9" rx="2" fill="#161b22"/><rect x="163.5" y="281.5" width="9" height="9" rx="2" fill="#161b22"/><rect x="163.5" y="293" width="9" height="9" rx="2" fill="#161b22"/><rect x="163.5" y="304.5" width="9" height="9" rx="2" fill="#161b22"/><rect x="163.5" y="316" width="9" height="9" rx="2" fill="#161b22"/><rect x="163.5" y="327.5" width="9" height="9" rx="2" fill="#161b22"/><rect x="163.5" y="339" width="9" height="9" rx="2" fill="#161b22"/><rect x="175" y="270" width="9" height="9" rx="2" fill="#161b22"/><rect x="175" y="281.5" width="9" height="9" rx="2" fill="#161b22"/><rect x="175" y="293" width="9" height="9" rx="2" fill="#161b22"/><rect x="175" y="304.5" width="9" height="9" rx="2" fill="#161b22"/><rect x="175" y="316" width="9" height="9" rx="2" fill="#161b22"/><rect x="175" y="327.5" width="9" height="9" rx="2" fill="#161b22"/><rect x="175" y="339" width="9" height="9" rx="2" fill="#161b22"/><rect x="186.5" y="270" width="9" height="9" rx="2" fill="#161b22"/><rect x="186.5" y="281.5" width="9" height="9" rx="2" fill="#161b22"/><rect x="186.5" y="293" width="9" height="9" rx="2" fill="#161b22"/><rect x="186.5" y="304.5" width="9" height="9" rx="2" fill="#161b22"/><rect x="186.5" y="316" width="9" height="9" rx="2" fill="#161b22"/><rect x="186.5" y="327.5" width="9" height="9" rx="2" fill="#161b22"/><rect x="186.5" y="339" width="9" height="9" rx="2" fill="#161b22"/><rect x="198" y="270" width="9" height="9" rx="2" fill="#161b22"/><rect x="198" y="281.5" width="9" height="9" rx="2" fill="#161b22"/><rect x="198" y="293" width="9" height="9" rx="2" fill="#161b22"/><rect x="198" y="304.5" width="9" height="9" rx="2" fill="#161b22"/><rect x="198" y="316" width="9" height="9" rx="2" fill="#161b22"/><rect x="198" y="327.5" width="9" height="9" rx="2" fill="#161b22"/><rect x="198" y="339" width="9" height="9" rx="2" fill="#161b22"/><rect x="209.5" y="270" width="9" height="9" rx="2" fill="#161b22"/><rect x="209.5" y="281.5" width="9" height="9" rx="2" fill="#161b22"/><rect x="209.5" y="293" width="9" height="9" rx="2" fill="#161b22"/><rect x="209.5" y="304.5" width="9" height="9" rx="2" fill="#161b22"/><rect x="209.5" y="316" width="9" height="9" rx="2" fill="#161b22"/><rect x="209.5" y="327.5" width="9" height="9" rx="2" fill="#161b22"/><rect x="209.5" y="339" width="9" height="9" rx="2" fill="#161b22"/><rect x="221" y="270" width="9" height="9" rx="2" fill="#161b22"/><rect x="221" y="281.5" width="9" height="9" rx="2" fill="#161b22"/><rect x="221" y="293" width="9" height="9" rx="2" fill="#161b22"/><rect x="221" y="304.5" width="9" height="9" rx="2" fill="#161b22"/><rect x="221" y="316" width="9" height="9" rx="2" fill="#161b22"/><rect x="221" y="327.5" width="9" height="9" rx="2" fill="#161b22"/><rect x="221" y="339" width="9" height="9" rx="2" fill="#161b22"/><rect x="232.5" y="270" width="9" height="9" rx="2" fill="#161b22"/><rect x="232.5" y="281.5" width="9" height="9" rx="2" fill="#161b22"/><rect x="232.5" y="293" width="9" height="9" rx="2" fill="#161b22"/><rect x="232.5" y="304.5" width="9" height="9" rx="2" fill="#161b22"/><rect x="232.5" y="316" width="9" height="9" rx="2" fill="#161b22"/><rect x="232.5" y="327.5" width="9" height="9" rx="2" fill="#161b22"/><rect x="232.5" y="339" width="9" height="9" rx="2" fill="#161b22"/><rect x="244" y="270" width="9" height="9" rx="2" fill="#161b22"/><rect x="244" y="281.5" width="9" height="9" rx="2" fill="#161b22"/><rect x="244" y="293" width="9" height="9" rx="2" fill="#4fb6ac" opacity="0.28"/><rect x="244" y="304.5" width="9" height="9" rx="2" fill="#161b22"/><rect x="244" y="316" width="9" height="9" rx="2" fill="#161b22"/><rect x="244" y="327.5" width="9" height="9" rx="2" fill="#161b22"/><rect x="244" y="339" width="9" height="9" rx="2" fill="#161b22"/><rect x="255.5" y="270" width="9" height="9" rx="2" fill="#161b22"/><rect x="255.5" y="281.5" width="9" height="9" rx="2" fill="#161b22"/><rect x="255.5" y="293" width="9" height="9" rx="2" fill="#161b22"/><rect x="255.5" y="304.5" width="9" height="9" rx="2" fill="#161b22"/><rect x="255.5" y="316" width="9" height="9" rx="2" fill="#4fb6ac" opacity="0.28"/><rect x="255.5" y="327.5" width="9" height="9" rx="2" fill="#4fb6ac" opacity="0.75"/><rect x="255.5" y="339" width="9" height="9" rx="2" fill="#161b22"/><rect x="267" y="270" width="9" height="9" rx="2" fill="#161b22"/><rect x="267" y="281.5" width="9" height="9" rx="2" fill="#161b22"/><rect x="267" y="293" width="9" height="9" rx="2" fill="#161b22"/><rect x="267" y="304.5" width="9" height="9" rx="2" fill="#161b22"/><rect x="267" y="316" width="9" height="9" rx="2" fill="#161b22"/><rect x="267" y="327.5" width="9" height="9" rx="2" fill="#161b22"/><rect x="267" y="339" width="9" height="9" rx="2" fill="#161b22"/><rect x="278.5" y="270" width="9" height="9" rx="2" fill="#161b22"/><rect x="278.5" y="281.5" width="9" height="9" rx="2" fill="#161b22"/><rect x="278.5" y="293" width="9" height="9" rx="2" fill="#161b22"/><rect x="278.5" y="304.5" width="9" height="9" rx="2" fill="#161b22"/><rect x="278.5" y="316" width="9" height="9" rx="2" fill="#161b22"/><rect x="278.5" y="327.5" width="9" height="9" rx="2" fill="#161b22"/><rect x="278.5" y="339" width="9" height="9" rx="2" fill="#161b22"/><rect x="290" y="270" width="9" height="9" rx="2" fill="#161b22"/><rect x="290" y="281.5" width="9" height="9" rx="2" fill="#161b22"/><rect x="290" y="293" width="9" height="9" rx="2" fill="#161b22"/><rect x="290" y="304.5" width="9" height="9" rx="2" fill="#161b22"/><rect x="290" y="316" width="9" height="9" rx="2" fill="#161b22"/><rect x="290" y="327.5" width="9" height="9" rx="2" fill="#161b22"/><rect x="290" y="339" width="9" height="9" rx="2" fill="#161b22"/><rect x="301.5" y="270" width="9" height="9" rx="2" fill="#161b22"/><rect x="301.5" y="281.5" width="9" height="9" rx="2" fill="#161b22"/><rect x="301.5" y="293" width="9" height="9" rx="2" fill="#161b22"/><rect x="301.5" y="304.5" width="9" height="9" rx="2" fill="#161b22"/><rect x="301.5" y="316" width="9" height="9" rx="2" fill="#161b22"/><rect x="301.5" y="327.5" width="9" height="9" rx="2" fill="#161b22"/><rect x="301.5" y="339" width="9" height="9" rx="2" fill="#161b22"/><rect x="313" y="270" width="9" height="9" rx="2" fill="#161b22"/><rect x="313" y="281.5" width="9" height="9" rx="2" fill="#161b22"/><rect x="313" y="293" width="9" height="9" rx="2" fill="#161b22"/><rect x="313" y="304.5" width="9" height="9" rx="2" fill="#161b22"/><rect x="313" y="316" width="9" height="9" rx="2" fill="#161b22"/><rect x="313" y="327.5" width="9" height="9" rx="2" fill="#161b22"/><rect x="313" y="339" width="9" height="9" rx="2" fill="#161b22"/><rect x="324.5" y="270" width="9" height="9" rx="2" fill="#161b22"/><rect x="324.5" y="281.5" width="9" height="9" rx="2" fill="#161b22"/><rect x="324.5" y="293" width="9" height="9" rx="2" fill="#161b22"/><rect x="324.5" y="304.5" width="9" height="9" rx="2" fill="#161b22"/><rect x="324.5" y="316" width="9" height="9" rx="2" fill="#161b22"/><rect x="324.5" y="327.5" width="9" height="9" rx="2" fill="#161b22"/><rect x="324.5" y="339" width="9" height="9" rx="2" fill="#161b22"/><rect x="336" y="270" width="9" height="9" rx="2" fill="#161b22"/><rect x="336" y="281.5" width="9" height="9" rx="2" fill="#161b22"/><rect x="336" y="293" width="9" height="9" rx="2" fill="#161b22"/><rect x="336" y="304.5" width="9" height="9" rx="2" fill="#161b22"/><rect x="336" y="316" width="9" height="9" rx="2" fill="#161b22"/><rect x="336" y="327.5" width="9" height="9" rx="2" fill="#161b22"/><rect x="336" y="339" width="9" height="9" rx="2" fill="#161b22"/><rect x="347.5" y="270" width="9" height="9" rx="2" fill="#161b22"/><rect x="347.5" y="281.5" width="9" height="9" rx="2" fill="#161b22"/><rect x="347.5" y="293" width="9" height="9" rx="2" fill="#161b22"/><rect x="347.5" y="304.5" width="9" height="9" rx="2" fill="#161b22"/><rect x="347.5" y="316" width="9" height="9" rx="2" fill="#161b22"/><rect x="347.5" y="327.5" width="9" height="9" rx="2" fill="#161b22"/><rect x="347.5" y="339" width="9" height="9" rx="2" fill="#161b22"/><rect x="359" y="270" width="9" height="9" rx="2" fill="#161b22"/><rect x="359" y="281.5" width="9" height="9" rx="2" fill="#161b22"/><rect x="359" y="293" width="9" height="9" rx="2" fill="#161b22"/><rect x="359" y="304.5" width="9" height="9" rx="2" fill="#161b22"/><rect x="359" y="316" width="9" height="9" rx="2" fill="#161b22"/><rect x="359" y="327.5" width="9" height="9" rx="2" fill="#161b22"/><rect x="359" y="339" width="9" height="9" rx="2" fill="#161b22"/><rect x="370.5" y="270" width="9" height="9" rx="2" fill="#161b22"/><rect x="370.5" y="281.5" width="9" height="9" rx="2" fill="#161b22"/><rect x="370.5" y="293" width="9" height="9" rx="2" fill="#161b22"/><rect x="370.5" y="304.5" width="9" height="9" rx="2" fill="#161b22"/><rect x="370.5" y="316" width="9" height="9" rx="2" fill="#161b22"/><rect x="370.5" y="327.5" width="9" height="9" rx="2" fill="#161b22"/><rect x="370.5" y="339" width="9" height="9" rx="2" fill="#161b22"/><rect x="382" y="270" width="9" height="9" rx="2" fill="#161b22"/><rect x="382" y="281.5" width="9" height="9" rx="2" fill="#161b22"/><rect x="382" y="293" width="9" height="9" rx="2" fill="#161b22"/><rect x="382" y="304.5" width="9" height="9" rx="2" fill="#161b22"/><rect x="382" y="316" width="9" height="9" rx="2" fill="#161b22"/><rect x="382" y="327.5" width="9" height="9" rx="2" fill="#161b22"/><rect x="382" y="339" width="9" height="9" rx="2" fill="#161b22"/><rect x="393.5" y="270" width="9" height="9" rx="2" fill="#161b22"/><rect x="393.5" y="281.5" width="9" height="9" rx="2" fill="#161b22"/><rect x="393.5" y="293" width="9" height="9" rx="2" fill="#161b22"/><rect x="393.5" y="304.5" width="9" height="9" rx="2" fill="#161b22"/><rect x="393.5" y="316" width="9" height="9" rx="2" fill="#161b22"/><rect x="393.5" y="327.5" width="9" height="9" rx="2" fill="#161b22"/><rect x="393.5" y="339" width="9" height="9" rx="2" fill="#161b22"/><rect x="405" y="270" width="9" height="9" rx="2" fill="#161b22"/><rect x="405" y="281.5" width="9" height="9" rx="2" fill="#161b22"/><rect x="405" y="293" width="9" height="9" rx="2" fill="#161b22"/><rect x="405" y="304.5" width="9" height="9" rx="2" fill="#161b22"/><rect x="405" y="316" width="9" height="9" rx="2" fill="#161b22"/><rect x="405" y="327.5" width="9" height="9" rx="2" fill="#161b22"/><rect x="405" y="339" width="9" height="9" rx="2" fill="#161b22"/><rect x="416.5" y="270" width="9" height="9" rx="2" fill="#161b22"/><rect x="416.5" y="281.5" width="9" height="9" rx="2" fill="#161b22"/><rect x="416.5" y="293" width="9" height="9" rx="2" fill="#161b22"/><rect x="416.5" y="304.5" width="9" height="9" rx="2" fill="#161b22"/><rect x="416.5" y="316" width="9" height="9" rx="2" fill="#161b22"/><rect x="416.5" y="327.5" width="9" height="9" rx="2" fill="#161b22"/><rect x="416.5" y="339" width="9" height="9" rx="2" fill="#161b22"/><rect x="428" y="270" width="9" height="9" rx="2" fill="#161b22"/><rect x="428" y="281.5" width="9" height="9" rx="2" fill="#161b22"/><rect x="428" y="293" width="9" height="9" rx="2" fill="#161b22"/><rect x="428" y="304.5" width="9" height="9" rx="2" fill="#161b22"/><rect x="428" y="316" width="9" height="9" rx="2" fill="#161b22"/><rect x="428" y="327.5" width="9" height="9" rx="2" fill="#161b22"/><rect x="428" y="339" width="9" height="9" rx="2" fill="#161b22"/><rect x="439.5" y="270" width="9" height="9" rx="2" fill="#161b22"/><rect x="439.5" y="281.5" width="9" height="9" rx="2" fill="#161b22"/><rect x="439.5" y="293" width="9" height="9" rx="2" fill="#161b22"/><rect x="439.5" y="304.5" width="9" height="9" rx="2" fill="#161b22"/><rect x="439.5" y="316" width="9" height="9" rx="2" fill="#161b22"/><rect x="439.5" y="327.5" width="9" height="9" rx="2" fill="#161b22"/><rect x="439.5" y="339" width="9" height="9" rx="2" fill="#161b22"/><rect x="451" y="270" width="9" height="9" rx="2" fill="#161b22"/><rect x="451" y="281.5" width="9" height="9" rx="2" fill="#161b22"/><rect x="451" y="293" width="9" height="9" rx="2" fill="#161b22"/><rect x="451" y="304.5" width="9" height="9" rx="2" fill="#161b22"/><rect x="451" y="316" width="9" height="9" rx="2" fill="#161b22"/><rect x="451" y="327.5" width="9" height="9" rx="2" fill="#161b22"/><rect x="451" y="339" width="9" height="9" rx="2" fill="#161b22"/><rect x="462.5" y="270" width="9" height="9" rx="2" fill="#161b22"/><rect x="462.5" y="281.5" width="9" height="9" rx="2" fill="#161b22"/><rect x="462.5" y="293" width="9" height="9" rx="2" fill="#161b22"/><rect x="462.5" y="304.5" width="9" height="9" rx="2" fill="#161b22"/><rect x="462.5" y="316" width="9" height="9" rx="2" fill="#161b22"/><rect x="462.5" y="327.5" width="9" height="9" rx="2" fill="#161b22"/><rect x="462.5" y="339" width="9" height="9" rx="2" fill="#161b22"/><rect x="474" y="270" width="9" height="9" rx="2" fill="#161b22"/><rect x="474" y="281.5" width="9" height="9" rx="2" fill="#161b22"/><rect x="474" y="293" width="9" height="9" rx="2" fill="#161b22"/><rect x="474" y="304.5" width="9" height="9" rx="2" fill="#161b22"/><rect x="474" y="316" width="9" height="9" rx="2" fill="#161b22"/><rect x="474" y="327.5" width="9" height="9" rx="2" fill="#161b22"/><rect x="474" y="339" width="9" height="9" rx="2" fill="#161b22"/><rect x="485.5" y="270" width="9" height="9" rx="2" fill="#161b22"/><rect x="485.5" y="281.5" width="9" height="9" rx="2" fill="#161b22"/><rect x="485.5" y="293" width="9" height="9" rx="2" fill="#161b22"/><rect x="485.5" y="304.5" width="9" height="9" rx="2" fill="#161b22"/><rect x="485.5" y="316" width="9" height="9" rx="2" fill="#161b22"/><rect x="485.5" y="327.5" width="9" height="9" rx="2" fill="#161b22"/><rect x="485.5" y="339" width="9" height="9" rx="2" fill="#161b22"/><rect x="497" y="270" width="9" height="9" rx="2" fill="#161b22"/><rect x="497" y="281.5" width="9" height="9" rx="2" fill="#161b22"/><rect x="497" y="293" width="9" height="9" rx="2" fill="#161b22"/><rect x="497" y="304.5" width="9" height="9" rx="2" fill="#161b22"/><rect x="497" y="316" width="9" height="9" rx="2" fill="#161b22"/><rect x="497" y="327.5" width="9" height="9" rx="2" fill="#161b22"/><rect x="497" y="339" width="9" height="9" rx="2" fill="#161b22"/><rect x="508.5" y="270" width="9" height="9" rx="2" fill="#161b22"/><rect x="508.5" y="281.5" width="9" height="9" rx="2" fill="#161b22"/><rect x="508.5" y="293" width="9" height="9" rx="2" fill="#161b22"/><rect x="508.5" y="304.5" width="9" height="9" rx="2" fill="#161b22"/><rect x="508.5" y="316" width="9" height="9" rx="2" fill="#161b22"/><rect x="508.5" y="327.5" width="9" height="9" rx="2" fill="#161b22"/><rect x="508.5" y="339" width="9" height="9" rx="2" fill="#161b22"/><rect x="520" y="270" width="9" height="9" rx="2" fill="#161b22"/><rect x="520" y="281.5" width="9" height="9" rx="2" fill="#161b22"/><rect x="520" y="293" width="9" height="9" rx="2" fill="#161b22"/><rect x="520" y="304.5" width="9" height="9" rx="2" fill="#161b22"/><rect x="520" y="316" width="9" height="9" rx="2" fill="#161b22"/><rect x="520" y="327.5" width="9" height="9" rx="2" fill="#161b22"/><rect x="520" y="339" width="9" height="9" rx="2" fill="#161b22"/><rect x="531.5" y="270" width="9" height="9" rx="2" fill="#161b22"/><rect x="531.5" y="281.5" width="9" height="9" rx="2" fill="#161b22"/><rect x="531.5" y="293" width="9" height="9" rx="2" fill="#161b22"/><rect x="531.5" y="304.5" width="9" height="9" rx="2" fill="#161b22"/><rect x="531.5" y="316" width="9" height="9" rx="2" fill="#161b22"/><rect x="531.5" y="327.5" width="9" height="9" rx="2" fill="#161b22"/><rect x="531.5" y="339" width="9" height="9" rx="2" fill="#161b22"/><rect x="543" y="270" width="9" height="9" rx="2" fill="#161b22"/><rect x="543" y="281.5" width="9" height="9" rx="2" fill="#161b22"/><rect x="543" y="293" width="9" height="9" rx="2" fill="#161b22"/><rect x="543" y="304.5" width="9" height="9" rx="2" fill="#161b22"/><rect x="543" y="316" width="9" height="9" rx="2" fill="#161b22"/><rect x="543" y="327.5" width="9" height="9" rx="2" fill="#161b22"/><rect x="543" y="339" width="9" height="9" rx="2" fill="#161b22"/><rect x="554.5" y="270" width="9" height="9" rx="2" fill="#161b22"/><rect x="554.5" y="281.5" width="9" height="9" rx="2" fill="#161b22"/><rect x="554.5" y="293" width="9" height="9" rx="2" fill="#161b22"/><rect x="554.5" y="304.5" width="9" height="9" rx="2" fill="#161b22"/><rect x="554.5" y="316" width="9" height="9" rx="2" fill="#161b22"/><rect x="554.5" y="327.5" width="9" height="9" rx="2" fill="#161b22"/><rect x="554.5" y="339" width="9" height="9" rx="2" fill="#161b22"/><rect x="566" y="270" width="9" height="9" rx="2" fill="#161b22"/><rect x="566" y="281.5" width="9" height="9" rx="2" fill="#161b22"/><rect x="566" y="293" width="9" height="9" rx="2" fill="#161b22"/><rect x="566" y="304.5" width="9" height="9" rx="2" fill="#161b22"/><rect x="566" y="316" width="9" height="9" rx="2" fill="#161b22"/><rect x="566" y="327.5" width="9" height="9" rx="2" fill="#161b22"/><rect x="566" y="339" width="9" height="9" rx="2" fill="#161b22"/><rect x="577.5" y="270" width="9" height="9" rx="2" fill="#161b22"/><rect x="577.5" y="281.5" width="9" height="9" rx="2" fill="#161b22"/><rect x="577.5" y="293" width="9" height="9" rx="2" fill="#161b22"/><rect x="577.5" y="304.5" width="9" height="9" rx="2" fill="#161b22"/><rect x="577.5" y="316" width="9" height="9" rx="2" fill="#161b22"/><rect x="577.5" y="327.5" width="9" height="9" rx="2" fill="#161b22"/><rect x="577.5" y="339" width="9" height="9" rx="2" fill="#161b22"/><rect x="589" y="270" width="9" height="9" rx="2" fill="#161b22"/><rect x="589" y="281.5" width="9" height="9" rx="2" fill="#161b22"/><rect x="589" y="293" width="9" height="9" rx="2" fill="#161b22"/><rect x="589" y="304.5" width="9" height="9" rx="2" fill="#161b22"/><rect x="589" y="316" width="9" height="9" rx="2" fill="#161b22"/><rect x="589" y="327.5" width="9" height="9" rx="2" fill="#161b22"/><rect x="589" y="339" width="9" height="9" rx="2" fill="#161b22"/><rect x="600.5" y="270" width="9" height="9" rx="2" fill="#161b22"/><rect x="600.5" y="281.5" width="9" height="9" rx="2" fill="#4fb6ac" opacity="0.28"/><rect x="600.5" y="293" width="9" height="9" rx="2" fill="#4fb6ac" opacity="0.28"/><rect x="600.5" y="304.5" width="9" height="9" rx="2" fill="#161b22"/><rect x="600.5" y="316" width="9" height="9" rx="2" fill="#4fb6ac" opacity="0.28"/><rect x="600.5" y="327.5" width="9" height="9" rx="2" fill="#161b22"/><rect x="600.5" y="339" width="9" height="9" rx="2" fill="#4fb6ac" opacity="0.5"/><rect x="612" y="270" width="9" height="9" rx="2" fill="#4fb6ac" opacity="0.28"/><rect x="612" y="281.5" width="9" height="9" rx="2" fill="#4fb6ac" opacity="0.28"/><rect x="612" y="293" width="9" height="9" rx="2" fill="#4fb6ac" opacity="0.5"/><rect x="612" y="304.5" width="9" height="9" rx="2" fill="#161b22"/><rect x="612" y="316" width="9" height="9" rx="2" fill="#161b22"/><rect x="612" y="327.5" width="9" height="9" rx="2" fill="#161b22"/><rect x="612" y="339" width="9" height="9" rx="2" fill="#4fb6ac" opacity="0.5"/><rect x="623.5" y="270" width="9" height="9" rx="2" fill="#4fb6ac" opacity="1"/><rect x="623.5" y="281.5" width="9" height="9" rx="2" fill="#161b22"/><rect x="623.5" y="293" width="9" height="9" rx="2" fill="#161b22"/><rect x="623.5" y="304.5" width="9" height="9" rx="2" fill="#161b22"/><rect x="623.5" y="316" width="9" height="9" rx="2" fill="#4fb6ac" opacity="0.28"/><rect x="623.5" y="327.5" width="9" height="9" rx="2" fill="#4fb6ac" opacity="0.28"/><rect x="623.5" y="339" width="9" height="9" rx="2" fill="#161b22"/><rect x="635" y="270" width="9" height="9" rx="2" fill="#161b22"/><rect x="635" y="281.5" width="9" height="9" rx="2" fill="#161b22"/><rect x="635" y="293" width="9" height="9" rx="2" fill="#4fb6ac" opacity="0.28"/><rect x="635" y="304.5" width="9" height="9" rx="2" fill="#161b22"/><rect x="635" y="316" width="9" height="9" rx="2" fill="#4fb6ac" opacity="0.28"/><rect x="635" y="327.5" width="9" height="9" rx="2" fill="#161b22"/><rect x="635" y="339" width="9" height="9" rx="2" fill="#161b22"/><rect x="646.5" y="270" width="9" height="9" rx="2" fill="#161b22"/><rect x="646.5" y="281.5" width="9" height="9" rx="2" fill="#161b22"/><rect x="646.5" y="293" width="9" height="9" rx="2" fill="#161b22"/><rect x="646.5" y="304.5" width="9" height="9" rx="2" fill="#161b22"/><rect x="646.5" y="316" width="9" height="9" rx="2" fill="#161b22"/><rect x="646.5" y="327.5" width="9" height="9" rx="2" fill="#161b22"/><rect x="646.5" y="339" width="9" height="9" rx="2" fill="#161b22"/><rect x="658" y="270" width="9" height="9" rx="2" fill="#161b22"/><rect x="658" y="281.5" width="9" height="9" rx="2" fill="#161b22"/><rect x="658" y="293" width="9" height="9" rx="2" fill="#4fb6ac" opacity="0.28"/>
    
      <rect x="40" y="380.5" width="860" height="192" rx="6" fill="#12161d" stroke="#1f2733" stroke-width="1"/>
      <text x="60" y="408.5" font-family="'Segoe UI', Helvetica, Arial, sans-serif" font-size="11" letter-spacing="1.5" fill="#6b7688" font-weight="600">LANGUAGE BREAKDOWN — BY REPOSITORY BYTES</text>
      <text x="60" y="436.5" font-family="'Segoe UI', Helvetica, Arial, sans-serif" font-size="12" fill="#e8ecf1">C++</text><rect x="200" y="428.5" width="620" height="8" rx="4" fill="#1f2733"/><rect x="200" y="428.5" width="448.6055240687293" height="8" rx="4" fill="#4fb6ac" opacity="1.00"/><text x="880" y="436.5" text-anchor="end" font-family="'SF Mono', 'Consolas', monospace" font-size="11.5" fill="#6b7688">72.4%</text><text x="60" y="458.5" font-family="'Segoe UI', Helvetica, Arial, sans-serif" font-size="12" fill="#e8ecf1">Cuda</text><rect x="200" y="450.5" width="620" height="8" rx="4" fill="#1f2733"/><rect x="200" y="450.5" width="101.04325243129809" height="8" rx="4" fill="#4fb6ac" opacity="0.89"/><text x="880" y="458.5" text-anchor="end" font-family="'SF Mono', 'Consolas', monospace" font-size="11.5" fill="#6b7688">16.3%</text><text x="60" y="480.5" font-family="'Segoe UI', Helvetica, Arial, sans-serif" font-size="12" fill="#e8ecf1">JavaScript</text><rect x="200" y="472.5" width="620" height="8" rx="4" fill="#1f2733"/><rect x="200" y="472.5" width="25.34232577151032" height="8" rx="4" fill="#4fb6ac" opacity="0.78"/><text x="880" y="480.5" text-anchor="end" font-family="'SF Mono', 'Consolas', monospace" font-size="11.5" fill="#6b7688">4.1%</text><text x="60" y="502.5" font-family="'Segoe UI', Helvetica, Arial, sans-serif" font-size="12" fill="#e8ecf1">CMake</text><rect x="200" y="494.5" width="620" height="8" rx="4" fill="#1f2733"/><rect x="200" y="494.5" width="20.646269184948135" height="8" rx="4" fill="#4fb6ac" opacity="0.67"/><text x="880" y="502.5" text-anchor="end" font-family="'SF Mono', 'Consolas', monospace" font-size="11.5" fill="#6b7688">3.3%</text><text x="60" y="524.5" font-family="'Segoe UI', Helvetica, Arial, sans-serif" font-size="12" fill="#e8ecf1">Python</text><rect x="200" y="516.5" width="620" height="8" rx="4" fill="#1f2733"/><rect x="200" y="516.5" width="12.054602642899512" height="8" rx="4" fill="#4fb6ac" opacity="0.56"/><text x="880" y="524.5" text-anchor="end" font-family="'SF Mono', 'Consolas', monospace" font-size="11.5" fill="#6b7688">1.9%</text><text x="60" y="546.5" font-family="'Segoe UI', Helvetica, Arial, sans-serif" font-size="12" fill="#e8ecf1">C</text><rect x="200" y="538.5" width="620" height="8" rx="4" fill="#1f2733"/><rect x="200" y="538.5" width="7.513072432992876" height="8" rx="4" fill="#4fb6ac" opacity="0.45"/><text x="880" y="546.5" text-anchor="end" font-family="'SF Mono', 'Consolas', monospace" font-size="11.5" fill="#6b7688">1.2%</text>
    
      <rect x="40" y="588.5" width="860" height="222" rx="6" fill="#12161d" stroke="#1f2733" stroke-width="1"/>
      <text x="60" y="616.5" font-family="'Segoe UI', Helvetica, Arial, sans-serif" font-size="11" letter-spacing="1.5" fill="#6b7688" font-weight="600">SELECTED PROJECTS</text>
      <rect x="60" y="632.5" width="403" height="76" rx="5" fill="none" stroke="#1f2733" stroke-width="1"/><text x="74" y="654.5" font-family="'Segoe UI', Helvetica, Arial, sans-serif" font-size="13" font-weight="600" fill="#e8ecf1">GPU-Accelerated Order Book Simulator</text><text x="74" y="672.5" font-family="'Segoe UI', Helvetica, Arial, sans-serif" font-size="11" fill="#6b7688">CUDA-based limit order book simulator for benchmarking matching</text><text x="74" y="686.5" font-family="'Segoe UI', Helvetica, Arial, sans-serif" font-size="11" fill="#6b7688">performance under GPU parallelism.</text><rect x="74" y="686.5" width="26.6" height="16" rx="3" fill="#1f2733"/><text x="87.3" y="698.5" text-anchor="middle" font-family="'SF Mono', 'Consolas', monospace" font-size="9.5" fill="#6b7688">C++</text><rect x="106.6" y="686.5" width="32.8" height="16" rx="3" fill="#1f2733"/><text x="123" y="698.5" text-anchor="middle" font-family="'SF Mono', 'Consolas', monospace" font-size="9.5" fill="#6b7688">CUDA</text><rect x="477" y="632.5" width="403" height="76" rx="5" fill="none" stroke="#1f2733" stroke-width="1"/><text x="491" y="654.5" font-family="'Segoe UI', Helvetica, Arial, sans-serif" font-size="13" font-weight="600" fill="#e8ecf1">C++ Matching Engine</text><text x="491" y="672.5" font-family="'Segoe UI', Helvetica, Arial, sans-serif" font-size="11" fill="#6b7688">Limit order matching engine benchmarked at 500K+ orders/sec.</text><rect x="491" y="686.5" width="26.6" height="16" rx="3" fill="#1f2733"/><text x="504.3" y="698.5" text-anchor="middle" font-family="'SF Mono', 'Consolas', monospace" font-size="9.5" fill="#6b7688">C++</text><rect x="60" y="718.5" width="403" height="76" rx="5" fill="none" stroke="#1f2733" stroke-width="1"/><text x="74" y="740.5" font-family="'Segoe UI', Helvetica, Arial, sans-serif" font-size="13" font-weight="600" fill="#e8ecf1">Brain Tumor Detection CNN</text><text x="74" y="758.5" font-family="'Segoe UI', Helvetica, Arial, sans-serif" font-size="11" fill="#6b7688">MRI-based tumor classification, 87.25% validation accuracy,</text><text x="74" y="772.5" font-family="'Segoe UI', Helvetica, Arial, sans-serif" font-size="11" fill="#6b7688">deployed on Hugging Face Spaces.</text><rect x="74" y="772.5" width="45.2" height="16" rx="3" fill="#1f2733"/><text x="96.6" y="784.5" text-anchor="middle" font-family="'SF Mono', 'Consolas', monospace" font-size="9.5" fill="#6b7688">Python</text><rect x="125.2" y="772.5" width="26.6" height="16" rx="3" fill="#1f2733"/><text x="138.5" y="784.5" text-anchor="middle" font-family="'SF Mono', 'Consolas', monospace" font-size="9.5" fill="#6b7688">CNN</text><rect x="477" y="718.5" width="403" height="76" rx="5" fill="none" stroke="#1f2733" stroke-width="1"/><text x="491" y="740.5" font-family="'Segoe UI', Helvetica, Arial, sans-serif" font-size="13" font-weight="600" fill="#e8ecf1">Lossless RGB Image Compression Engine</text><text x="491" y="758.5" font-family="'Segoe UI', Helvetica, Arial, sans-serif" font-size="11" fill="#6b7688">Huffman-coding-based lossless compressor, 35-45% size reduction</text><text x="491" y="772.5" font-family="'Segoe UI', Helvetica, Arial, sans-serif" font-size="11" fill="#6b7688">on RGB image data.</text><rect x="491" y="772.5" width="26.6" height="16" rx="3" fill="#1f2733"/><text x="504.3" y="784.5" text-anchor="middle" font-family="'SF Mono', 'Consolas', monospace" font-size="9.5" fill="#6b7688">C++</text>
    
      <rect x="40" y="826.5" width="860" height="40" rx="6" fill="#12161d" stroke="#1f2733" stroke-width="1"/>
      <text x="470" y="851.5" text-anchor="middle" font-family="'Segoe UI', Helvetica, Arial, sans-serif" font-size="12.5" letter-spacing="1" fill="#4fb6ac">SYSTEMS     ·     MACHINE LEARNING     ·     COMPETITIVE PROGRAMMING     ·     OPEN SOURCE</text>
    
      <text x="470" y="898.5" text-anchor="middle" font-family="'SF Mono', 'Consolas', monospace" font-size="11" fill="#40495a">GitHub: true-brace05     ·     LinkedIn: astha-bansal05     ·     Hugging Face: divisefallacy     ·     Codeforces: —</text>
    
</svg>