<?xml version="1.0" encoding="UTF-8"?>
<svg version="1.1" xmlns="http://www.w3.org/2000/svg" width="24" height="24">
<path d="M0 0 C2.875 -0.1875 2.875 -0.1875 6 0 C8.19696964 3.29545446 8.91799194 6.21297178 10 10 C10.99 11.485 10.99 11.485 12 13 C12.4140625 15.26171875 12.4140625 15.26171875 12.625 17.6875 C12.69976563 18.49574219 12.77453125 19.30398437 12.8515625 20.13671875 C12.92503906 21.05904297 12.92503906 21.05904297 13 22 C9.3091176 24.46058827 7.38892458 24.23778976 3 24.1875 C1.14375 24.17783203 1.14375 24.17783203 -0.75 24.16796875 C-4 24 -4 24 -7 23 C-7 21.02 -7 19.04 -7 17 C-6.34 17 -5.68 17 -5 17 C-4.87625 16.071875 -4.7525 15.14375 -4.625 14.1875 C-4 11 -4 11 -2 8 C-1.33841957 5.95415921 -1.33841957 5.95415921 -0.875 3.8125 C-0.58625 2.554375 -0.2975 1.29625 0 0 Z M1 9 C-0.5471219 11.4571936 -1.04484402 12.632279 -0.6875 15.5625 C-0.17232879 17.38901612 0.39986981 19.19960942 1 21 C2.65 20.67 4.3 20.34 6 20 C6.20625 18.741875 6.4125 17.48375 6.625 16.1875 C6.74101562 15.47980469 6.85703125 14.77210937 6.9765625 14.04296875 C7.19577848 11.68244176 7.19577848 11.68244176 5 9 C3.68 9 2.36 9 1 9 Z " fill="#9B8C59" transform="translate(9,0)"/>
<path d="M0 0 C2.875 -0.1875 2.875 -0.1875 6 0 C8.19696964 3.29545446 8.91799194 6.21297178 10 10 C10.99 11.485 10.99 11.485 12 13 C12 14.32 12 15.64 12 17 C10.02 17 8.04 17 6 17 C5.87625 15.88625 5.7525 14.7725 5.625 13.625 C5.3534187 9.96896323 5.3534187 9.96896323 3 8 C3.66 8 4.32 8 5 8 C4.67 7.34 4.34 6.68 4 6 C1.11785113 6.88214887 1.11785113 6.88214887 -1 8 C-1.125 2.25 -1.125 2.25 0 0 Z " fill="#7D7C79" transform="translate(9,0)"/>
<path d="M0 0 C1.98 0 3.96 0 6 0 C6.33 1.65 6.66 3.3 7 5 C4.69 5.33 2.38 5.66 0 6 C0 4.02 0 2.04 0 0 Z " fill="#E3B41A" transform="translate(15,17)"/>
<path d="M0 0 C2 1.8125 2 1.8125 4 4 C4 4.99 4 5.98 4 7 C1.03 6.505 1.03 6.505 -2 6 C-1.125 1.125 -1.125 1.125 0 0 Z " fill="#F6BF07" transform="translate(5,16)"/>
<path d="M0 0 C0 0.99 0 1.98 0 3 C1.32 3.33 2.64 3.66 4 4 C1.03 3.67 -1.94 3.34 -5 3 C-5 2.34 -5 1.68 -5 1 C-2 0 -2 0 0 0 Z " fill="#7F7A69" transform="translate(15,20)"/>
</svg>
